<?xml version="1.0" standalone="no"?>
<!DOCTYPE svg PUBLIC "-//W3C//DTD SVG 20010904//EN"
 "http://www.w3.org/TR/2001/REC-SVG-20010904/DTD/svg10.dtd">
<svg version="1.0" xmlns="http://www.w3.org/2000/svg"
 width="400.000000pt" height="400.000000pt" viewBox="0 0 400.000000 400.000000"
 preserveAspectRatio="xMidYMid meet">
<metadata>
Created by potrace 1.11, written by Peter Selinger 2001-2013
</metadata>
<g transform="translate(0.000000,400.000000) scale(0.100000,-0.100000)"
fill="#000000" stroke="none">
<path d="M0 3968 c0 -33 1 -33 82 -56 104 -29 110 -34 102 -87 -3 -26 -1 -51
6 -65 6 -12 10 -24 8 -26 -3 -2 -47 10 -99 26 -52 16 -95 30 -97 30 -2 0 -2
-17 0 -37 3 -35 5 -37 60 -52 31 -9 60 -19 63 -23 4 -4 -7 -26 -25 -48 -30
-38 -36 -41 -66 -35 -33 6 -34 5 -34 -26 0 -18 7 -37 17 -44 16 -12 16 -14 0
-38 -16 -24 -17 -86 -17 -746 0 -630 2 -720 15 -725 8 -3 15 -13 15 -22 0 -10
-5 -14 -15 -10 -13 5 -15 -23 -15 -205 1 -268 1 -267 54 -271 29 -2 42 -8 44
-20 4 -19 -21 -29 -90 -37 -5 -1 -8 -327 -8 -726 l0 -725 1303 1 c716 1 1294
3 1285 6 -10 2 -18 10 -18 17 0 16 -46 56 -65 56 -8 0 -14 6 -12 13 1 6 -3 11
-9 10 -7 -1 -15 9 -18 22 -4 14 -12 25 -19 25 -7 0 -30 23 -51 51 -21 28 -51
55 -67 61 -16 5 -29 14 -29 18 0 5 -22 22 -50 39 -50 31 -120 91 -105 91 4 0
-4 15 -19 34 -14 19 -31 45 -36 58 -6 13 -28 50 -50 83 -84 128 -210 370 -210
403 0 5 -6 15 -14 21 -8 7 -17 30 -21 51 -8 45 -71 141 -123 186 -45 40 -183
110 -244 125 -36 9 -49 17 -58 39 -7 16 -20 36 -31 46 -10 9 -19 23 -19 31 0
7 -6 16 -14 19 -21 8 -9 30 24 44 16 7 29 15 28 19 -4 31 27 48 108 57 31 4
51 10 45 13 -19 12 0 81 26 99 23 14 36 14 177 -10 83 -14 159 -29 170 -33 10
-5 3 7 -17 27 -20 20 -33 38 -31 41 3 3 -6 14 -20 25 -15 11 -26 27 -26 35 0
8 -6 17 -12 19 -8 3 -3 10 12 19 34 19 178 16 255 -4 165 -45 198 -56 206 -68
6 -11 14 -8 34 11 17 16 22 27 15 34 -13 13 -13 29 0 21 6 -3 10 -1 10 4 0 15
-11 13 -34 -4 -28 -21 -89 -18 -131 6 -19 12 -42 18 -51 15 -8 -3 -12 -2 -9 4
3 5 -7 12 -22 16 -53 11 -68 17 -73 25 -3 5 -28 11 -55 14 -58 7 -105 25 -105
41 0 16 46 38 65 30 21 -8 32 21 17 45 -9 14 -8 19 6 22 13 3 13 5 2 6 -15 1
-65 135 -59 156 2 6 -9 29 -25 52 -24 36 -28 53 -27 100 1 49 9 75 58 171 43
83 63 114 80 118 13 4 20 10 17 15 -7 12 18 11 72 -2 l44 -11 0 -84 c0 -45 4
-85 9 -89 6 -3 7 25 4 70 -6 81 3 106 41 104 11 0 15 -3 8 -6 -6 -2 -9 -10 -5
-16 4 -6 7 -32 8 -57 0 -30 4 -44 13 -42 6 1 12 -5 12 -13 0 -8 9 -15 21 -15
16 0 19 -4 14 -19 -4 -14 0 -23 15 -31 18 -10 30 -8 65 11 24 13 42 26 40 29
-2 3 13 5 33 5 29 0 37 4 36 18 -3 27 18 20 56 -18 81 -81 195 -171 140 -111
-26 29 -30 36 -13 27 22 -11 22 -11 11 16 -20 46 -66 110 -94 130 -16 12 -28
31 -30 51 -4 36 -6 36 100 6 78 -22 65 -9 -18 19 -74 25 -112 48 -99 61 4 3 1
6 -6 6 -7 0 -9 5 -6 10 4 6 3 10 -2 9 -19 -3 -52 14 -46 24 4 6 0 8 -10 4 -10
-3 -17 -3 -17 1 0 5 -21 9 -47 11 -26 1 -52 5 -57 9 -22 13 -44 11 -82 -8 -21
-11 -44 -20 -50 -20 -17 0 -24 -26 -11 -39 6 -6 9 -11 6 -12 -2 0 -15 -3 -29
-5 -14 -3 -53 0 -86 6 -57 11 -62 14 -62 38 0 15 5 33 11 40 15 19 -22 81 -53
89 -14 3 -34 16 -45 28 -15 17 -29 22 -57 20 -28 -3 -38 1 -41 13 -4 15 -5 15
-6 0 -1 -24 -17 -23 -24 2 -3 11 -21 29 -41 41 -37 21 -48 49 -21 49 8 0 15 9
15 19 0 16 8 20 37 23 32 3 38 7 38 28 4 88 5 90 33 100 15 6 34 14 43 19 8 5
27 7 40 4 16 -3 30 1 38 11 8 9 21 16 30 16 9 0 22 5 28 11 21 21 172 39 309
37 73 -2 134 -6 134 -9 0 -4 26 -16 58 -28 64 -25 144 -79 165 -113 78 -129
98 -171 117 -252 23 -94 33 -189 20 -181 -4 3 -10 -6 -12 -20 -3 -13 -2 -22 2
-20 4 2 5 -18 2 -46 -3 -34 -1 -54 7 -58 7 -4 13 -17 14 -29 0 -11 4 -19 8
-16 10 6 19 -22 19 -57 0 -26 -3 -29 -25 -23 -31 8 -32 -2 -4 -61 25 -54 22
-81 -9 -77 -28 4 -28 -7 1 -35 13 -11 34 -55 46 -96 23 -74 24 -75 41 -55 22
28 48 31 60 7 8 -13 7 -19 -1 -19 -6 0 -24 -9 -40 -21 -16 -11 -33 -18 -38
-15 -5 3 -8 -6 -8 -19 0 -26 12 -34 20 -12 3 9 9 9 23 1 13 -7 23 -33 32 -80
8 -38 18 -73 22 -78 23 -24 45 159 22 186 -16 20 -11 120 6 106 15 -13 16 4 0
20 -9 9 -8 12 5 12 14 0 16 4 7 19 -15 29 -12 38 5 15 14 -18 14 -17 5 9 -5
16 -6 26 -2 23 5 -3 16 3 24 13 12 14 13 22 5 30 -13 13 2 14 22 2 10 -6 12
-19 8 -42 -5 -23 -4 -29 3 -18 12 21 20 69 11 69 -4 0 -16 7 -27 15 -19 15
-19 15 0 8 15 -5 18 -3 14 8 -4 9 2 21 13 28 11 6 17 17 13 23 -5 8 -2 9 9 5
13 -5 17 -1 17 14 0 14 -5 19 -14 16 -15 -6 -41 39 -27 47 4 3 7 15 6 28 -1
13 2 29 8 36 6 8 6 12 -1 12 -8 0 -12 19 -13 72 0 10 -4 20 -9 23 -4 3 -6 14
-3 25 4 14 0 20 -11 20 -13 0 -15 4 -6 19 7 14 7 22 0 26 -8 5 -7 11 1 21 9
11 9 14 0 14 -7 0 -9 5 -6 10 4 6 8 28 10 50 4 34 0 42 -28 65 -22 18 -26 24
-12 20 16 -4 15 -3 -3 6 -18 10 -22 19 -18 43 6 36 -1 51 -19 36 -9 -8 -14 -5
-18 9 -3 11 0 19 5 18 6 -1 13 4 16 12 3 8 0 11 -7 7 -6 -4 -11 -2 -11 4 0 6
-4 9 -9 5 -5 -3 -12 -1 -15 4 -4 5 -2 12 4 16 15 9 -7 45 -24 39 -9 -4 -16 6
-20 31 -4 20 -14 39 -22 42 -9 3 -12 12 -8 25 4 14 2 18 -5 14 -7 -5 -11 2
-11 16 0 40 -12 68 -27 68 -11 0 -13 7 -9 24 4 15 1 28 -6 32 -8 5 -9 2 -5 -9
3 -10 2 -17 -4 -17 -6 0 -7 -4 -4 -10 3 -5 2 -10 -3 -10 -5 0 -14 17 -20 38
l-11 37 4 -38 c3 -33 2 -36 -14 -27 -10 5 -21 6 -25 3 -3 -3 -6 -1 -6 6 0 7
-5 9 -12 5 -7 -4 -8 -3 -4 4 4 6 12 10 19 8 7 -1 9 -1 4 1 -4 3 -5 9 -2 14 3
5 1 18 -5 29 -8 14 -8 20 0 20 7 0 5 6 -4 15 -11 11 -13 32 -10 87 3 40 9 145
14 233 5 88 12 172 16 188 l6 27 -306 0 -306 0 -22 -45 c-17 -35 -26 -44 -40
-39 -10 3 -18 1 -18 -5 0 -6 -9 -11 -20 -11 -24 0 -24 -2 0 54 l19 46 -24 0
c-14 0 -25 -5 -25 -11 0 -7 -8 -30 -19 -53 -77 -171 -75 -169 -145 -154 -25 5
-44 14 -41 18 3 5 -6 7 -19 4 -14 -2 -27 0 -31 5 -4 8 15 93 40 172 5 14 1 19
-13 19 -16 0 -24 -16 -42 -82 -13 -46 -26 -86 -29 -90 -7 -8 -22 -4 -364 98
l-248 75 -145 -3 -146 -3 428 -129 c236 -70 434 -132 440 -137 9 -7 9 -21 2
-49 -8 -30 -16 -40 -32 -41 -17 -1 -17 -2 -3 -6 24 -6 21 -18 -10 -43 -22 -17
-35 -20 -63 -15 -81 15 -939 270 -951 282 -4 5 -16 37 -27 73 -18 60 -22 65
-50 68 l-30 3 14 -47 c18 -62 18 -74 -4 -74 -23 0 -52 30 -52 54 0 9 -8 19
-17 23 -10 3 -30 15 -45 25 -32 22 -105 24 -153 3 -31 -12 -41 -12 -83 0 -26
8 -66 15 -89 15 -42 0 -43 -1 -43 -32z m2652 -85 c-2 -54 -7 -136 -12 -183 -6
-63 -7 -39 -3 90 5 153 8 190 16 190 1 0 1 -44 -1 -97z m-342 12 c0 -8 -4 -15
-10 -15 -5 0 -7 7 -4 15 4 8 8 15 10 15 2 0 4 -7 4 -15z m-290 -31 c0 -8 -5
-25 -11 -36 -9 -17 -13 -18 -20 -7 -6 10 -9 11 -9 2 0 -7 -7 -13 -15 -13 -18
0 -18 -1 -4 39 8 23 17 31 35 31 15 0 24 -6 24 -16z m376 -50 c-7 -19 -27 -8
-21 11 15 46 18 51 23 27 2 -13 1 -30 -2 -38z m-108 39 c-24 -49 -32 -63 -39
-63 -5 0 -1 16 8 35 9 19 21 35 26 35 5 0 7 -3 5 -7z m-1729 -142 c29 -91 28
-95 -15 -87 -19 4 -42 10 -50 13 -19 7 -18 -6 4 -41 12 -21 30 -33 61 -40 41
-10 45 -15 57 -56 16 -54 13 -67 -18 -72 -18 -2 -22 -9 -21 -28 3 -24 2 -24
-12 -6 -8 11 -15 23 -15 27 0 4 -12 14 -26 24 -25 16 -27 16 -41 -4 -24 -36
-51 -27 -64 22 -16 60 -47 221 -43 226 2 2 11 -2 20 -10 15 -12 16 -12 10 7
-4 14 0 26 14 39 12 11 20 31 20 51 l0 32 49 -16 c49 -15 50 -16 70 -81z m270
-21 c207 -62 504 -150 604 -178 31 -9 57 -21 57 -27 0 -6 -24 -34 -52 -62 -45
-43 -57 -49 -78 -42 -14 4 -180 54 -370 110 -190 56 -348 107 -353 113 -4 6
-5 25 -3 41 3 18 -1 38 -9 49 -17 22 -20 56 -5 56 5 0 99 -27 209 -60z m1570
13 c-1 -21 -17 -62 -20 -50 -1 4 -2 11 -3 16 0 5 -4 13 -8 17 -9 8 9 34 23 34
5 0 9 -8 8 -17z m-666 -7 c3 -8 -4 -21 -18 -30 -33 -22 -36 -20 -29 12 4 21 3
24 -5 12 -6 -8 -11 -10 -11 -4 0 26 54 35 63 10z m807 -10 c0 -2 -7 -6 -15
-10 -8 -3 -15 -1 -15 4 0 6 7 10 15 10 8 0 15 -2 15 -4z m-180 -16 c0 -5 -2
-10 -4 -10 -3 0 -8 5 -11 10 -3 6 -1 10 4 10 6 0 11 -4 11 -10z m111 -55 c12
-3 27 -9 33 -15 6 -6 -11 -4 -38 4 -26 8 -51 18 -54 22 -4 3 3 3 15 0 12 -4
32 -9 44 -11z m-70 -62 c13 -15 16 -21 7 -14 -12 9 -18 10 -18 2 0 -6 12 -17
28 -23 31 -14 113 -82 126 -106 6 -10 -3 -6 -21 9 -17 14 -44 31 -62 38 -17 8
-31 17 -31 22 0 5 -12 14 -26 19 -14 6 -28 19 -31 29 -3 10 -14 24 -26 30 -19
10 -19 11 -2 5 11 -3 27 -9 35 -12 13 -5 13 -3 1 11 -22 28 -7 19 20 -10z m98
-14 c18 -16 32 -32 30 -34 -2 -2 -21 12 -41 31 -21 19 -34 34 -30 34 4 0 23
-14 41 -31z m-1629 -73 c102 -30 244 -71 315 -91 138 -39 164 -52 127 -61 -12
-4 -22 -11 -22 -16 0 -5 5 -6 12 -2 7 4 8 3 4 -4 -4 -7 -19 -12 -34 -13 -24 0
-25 -1 -7 -9 20 -9 20 -9 0 -9 -11 -1 -32 7 -45 16 -24 17 -25 16 -10 -2 14
-17 13 -18 -3 -12 -10 4 -86 25 -170 48 -83 23 -163 47 -177 54 -14 6 -52 17
-85 24 -90 20 -88 18 -81 46 5 18 1 27 -14 35 -22 12 -28 50 -7 50 7 0 96 -24
197 -54z m1720 -25 c24 -9 24 -9 -7 -8 -17 1 -29 4 -27 6 2 2 -4 14 -13 25
-18 21 -18 21 2 4 11 -9 32 -21 45 -27z m-173 3 c-3 -3 -12 -4 -19 -1 -8 3 -5
6 6 6 11 1 17 -2 13 -5z m113 -55 c15 -28 5 -23 -15 7 -9 15 -12 23 -6 20 6
-4 16 -16 21 -27z m160 21 c0 -5 -9 -10 -21 -10 -11 0 -17 5 -14 10 3 6 13 10
21 10 8 0 14 -4 14 -10z m31 -107 c22 -20 37 -38 34 -41 -3 -3 -14 3 -26 14
-12 10 -24 18 -28 17 -3 -2 -6 2 -6 7 0 6 -13 22 -30 36 -24 20 -25 23 -7 14
13 -7 41 -28 63 -47z m-2106 -13 c4 0 4 9 0 19 -6 21 12 39 25 25 4 -5 11 -19
14 -30 10 -32 -40 -39 -90 -14 -21 11 -49 20 -61 20 -22 0 -30 10 -17 22 3 3
32 -5 64 -18 33 -13 62 -24 65 -24z m235 3 c8 -4 22 -7 30 -8 22 -3 270 -74
303 -87 l28 -11 -22 -23 c-13 -13 -29 -24 -37 -24 -12 0 -269 69 -394 106 -11
3 -18 15 -18 29 0 13 -5 25 -12 27 -6 2 -8 9 -5 15 7 11 74 -2 127 -24z m-353
-10 c3 -8 0 -19 -7 -23 -7 -4 -10 -12 -7 -18 8 -11 57 -4 57 9 0 5 8 9 17 9
16 0 16 -1 0 -17 -10 -11 -38 -18 -77 -21 l-60 -4 0 44 0 44 36 -4 c19 -2 38
-11 41 -19z m-287 -79 c0 -2 -9 -4 -21 -4 -11 0 -18 4 -14 10 5 8 35 3 35 -6z
m487 -11 c20 -27 16 -52 -7 -46 -11 3 -20 3 -20 0 0 -20 17 -40 46 -52 26 -11
34 -20 34 -39 0 -30 -24 -35 -55 -12 -12 9 -26 11 -35 6 -23 -12 -35 -1 -55
55 -10 28 -22 54 -27 60 -14 16 -9 35 15 45 31 13 89 4 104 -17z m-343 1 c20
-8 21 -33 1 -40 -8 -3 -30 0 -50 6 -29 10 -34 14 -24 26 12 15 46 18 73 8z
m2403 -10 c-3 -3 -12 -4 -19 -1 -8 3 -5 6 6 6 11 1 17 -2 13 -5z m-1824 -45
c160 -46 168 -50 141 -60 -37 -15 -105 -9 -202 18 -53 14 -98 27 -99 27 -1 1
-4 13 -8 29 -9 36 -4 36 168 -14z m-638 -21 c30 -13 33 -28 6 -28 -29 0 -71
18 -71 30 0 13 33 13 65 -2z m313 -73 c-3 -3 -9 2 -12 12 -6 14 -5 15 5 6 7
-7 10 -15 7 -18z m226 19 c22 -9 10 -24 -20 -24 -15 0 -24 6 -24 15 0 16 17
19 44 9z m-756 -76 c-2 -31 -8 -44 -20 -46 -15 -3 -18 4 -18 42 0 40 3 46 21
46 18 0 20 -5 17 -42z m968 16 c55 -16 63 -28 32 -48 -17 -10 -54 -3 -171 31
-54 16 -54 21 -5 33 38 10 67 7 144 -16z m-271 -25 c4 -6 5 -13 2 -16 -8 -7
-47 7 -47 18 0 13 37 11 45 -2z m181 -40 c78 -22 114 -36 114 -46 0 -9 -6 -12
-17 -9 -10 3 -61 17 -113 31 -126 35 -120 33 -120 45 0 15 12 13 136 -21z
m-283 4 c34 -9 67 -21 72 -26 6 -6 1 -7 -15 -3 -60 16 -93 19 -86 8 11 -17 -9
-15 -24 3 -7 8 -18 15 -26 15 -7 0 -16 5 -19 10 -9 15 27 12 98 -7z m-204 -17
c9 -10 8 -16 -4 -26 -13 -10 -21 -10 -43 -1 -26 12 -26 13 -7 27 24 18 39 18
54 0z m1096 -16 c-3 -5 -11 -10 -16 -10 -6 0 -7 5 -4 10 3 6 11 10 16 10 6 0
7 -4 4 -10z m190 0 c3 -5 -1 -10 -10 -10 -9 0 -13 5 -10 10 3 6 8 10 10 10 2
0 7 -4 10 -10z m-1675 -19 c0 -20 -21 -167 -27 -191 -6 -25 -6 -25 -13 5 -10
38 -12 143 -4 173 6 21 44 33 44 13z m735 -59 c-3 -3 -11 0 -18 7 -9 10 -8 11
6 5 10 -3 15 -9 12 -12z m137 -22 c77 -21 110 -41 67 -39 -41 1 -142 33 -147
47 -5 16 -5 16 80 -8z m1868 -4 c0 -3 -4 -8 -10 -11 -5 -3 -10 -1 -10 4 0 6 5
11 10 11 6 0 10 -2 10 -4z m-2474 -52 c-3 -9 -6 -20 -6 -25 0 -15 -17 -10 -24
7 -8 20 1 34 21 34 10 0 13 -6 9 -16z m877 1 c-3 -9 -8 -14 -10 -11 -3 3 -2 9
2 15 9 16 15 13 8 -4z m-644 -26 c20 -7 42 -14 50 -16 8 -2 11 -6 9 -9 -6 -6
-118 24 -118 32 0 7 22 4 59 -7z m243 -38 c10 -19 16 -36 15 -37 -1 0 -14 -4
-28 -8 -26 -6 -27 -4 -31 39 -2 36 0 45 12 43 8 -2 23 -19 32 -37z m138 19
c12 -8 9 -10 -12 -10 -16 0 -28 5 -28 10 0 13 20 13 40 0z m1273 -27 c-7 -2
-21 -2 -30 0 -10 3 -4 5 12 5 17 0 24 -2 18 -5z m-1893 -32 c0 -17 -4 -33 -10
-36 -6 -4 -10 8 -10 29 0 20 5 36 10 36 6 0 10 -13 10 -29z m2514 4 c3 -8 1
-15 -4 -15 -6 0 -10 7 -10 15 0 8 2 15 4 15 2 0 6 -7 10 -15z m-1878 -39 c19
-15 19 -15 -1 -11 -11 2 -23 4 -27 4 -11 1 -10 21 0 21 5 0 17 -6 28 -14z
m1881 -8 c-3 -8 -6 -5 -6 6 -1 11 2 17 5 13 3 -3 4 -12 1 -19z m16 -38 c3 -11
1 -18 -4 -14 -5 3 -9 12 -9 20 0 20 7 17 13 -6z m-2546 -37 c-3 -10 -5 -4 -5
12 0 17 2 24 5 18 2 -7 2 -21 0 -30z m973 -1 c36 -11 78 -23 94 -26 15 -4 26
-9 23 -12 -7 -7 -156 35 -187 53 -14 7 -18 12 -10 9 8 -3 44 -14 80 -24z
m-394 -57 c9 -14 14 -32 10 -40 -8 -21 -36 -19 -36 3 0 9 -3 27 -6 40 -8 30
11 28 32 -3z m575 1 c52 -3 62 -7 65 -33 3 -20 -15 -38 -41 -39 -11 -1 -37 -4
-58 -7 -23 -4 -35 -2 -32 3 4 6 -2 10 -13 10 -31 0 -62 33 -55 59 5 20 10 22
45 16 22 -4 62 -8 89 -9z m-723 -24 c2 -15 -3 -25 -19 -30 -17 -7 -19 -10 -7
-14 10 -4 13 -17 10 -42 -2 -21 -6 -35 -9 -32 -3 2 -4 7 -3 11 1 3 -6 17 -14
31 -9 13 -13 24 -9 24 5 0 0 5 -9 11 -37 21 -13 72 32 67 17 -2 26 -10 28 -26z
m-650 -51 c-5 -72 -13 -95 -29 -86 -10 7 -13 114 -3 139 3 9 13 16 21 16 13 0
15 -12 11 -69z m529 37 c-3 -8 -6 -5 -6 6 -1 11 2 17 5 13 3 -3 4 -12 1 -19z
m197 -96 c3 -5 2 -22 -2 -37 l-8 -29 -22 31 c-16 23 -19 33 -10 36 20 8 36 8
42 -1z m121 -22 c3 -5 1 -10 -4 -10 -6 0 -11 5 -11 10 0 6 2 10 4 10 3 0 8 -4
11 -10z m-207 -25 c1 -16 -3 -25 -13 -25 -15 0 -21 31 -8 43 12 13 19 7 21
-18z m107 -63 c-14 -3 -14 -5 2 -17 20 -15 17 -21 -12 -27 -16 -2 -20 3 -21
27 -2 40 3 47 27 32 17 -10 17 -13 4 -15z m-105 -1 c0 -14 -18 -23 -30 -16 -6
4 -8 11 -5 16 8 12 35 12 35 0z m-715 -271 c3 -5 1 -10 -4 -10 -6 0 -11 5 -11
10 0 6 2 10 4 10 3 0 8 -4 11 -10z m695 -9 c0 -22 67 -72 103 -78 23 -3 35 -9
29 -15 -14 -14 -2 -57 19 -63 23 -8 25 -25 3 -25 -13 0 -15 -7 -10 -34 4 -19
2 -53 -3 -75 -5 -24 -5 -43 0 -47 15 -9 10 -31 -8 -38 -19 -8 -153 15 -153 26
0 4 -15 4 -33 1 -23 -3 -37 0 -46 11 -7 9 -10 16 -5 16 5 0 9 16 9 35 0 27 -4
35 -18 35 -10 0 -15 5 -12 10 4 6 15 8 25 5 32 -10 11 36 -22 47 -27 10 -48
34 -48 58 0 6 5 8 10 5 6 -3 14 5 20 19 6 16 29 35 67 53 40 19 58 33 57 46
-1 9 2 17 7 17 5 0 9 -4 9 -9z m-406 -45 c-9 -29 -13 -31 -25 -19 -16 16 -2
53 17 46 10 -3 12 -12 8 -27z m74 -32 c17 -8 41 -28 52 -45 12 -16 28 -29 37
-29 12 0 13 -3 4 -13 -8 -10 -7 -19 4 -33 8 -10 15 -27 15 -36 0 -11 7 -17 18
-16 41 3 49 -2 49 -32 0 -30 -1 -30 -59 -30 -45 0 -58 -3 -58 -15 0 -12 -18
-15 -100 -15 -82 0 -100 3 -100 15 0 8 8 16 18 16 16 1 16 2 0 6 -24 6 -23 23
0 23 27 0 33 10 21 33 -8 14 -8 21 0 26 7 5 8 17 1 40 -9 32 -9 33 18 26 36
-9 37 -11 24 -40 -10 -21 -9 -25 3 -25 14 0 14 -3 0 -30 -16 -31 -20 -70 -7
-69 4 0 16 4 27 9 17 7 17 9 3 9 -10 1 -18 8 -18 17 0 12 6 15 24 10 20 -5 25
-2 29 16 l4 23 8 -22 c4 -13 11 -23 16 -23 12 0 11 17 -1 25 -6 4 -6 15 0 31
13 34 13 34 -10 34 -17 0 -20 7 -20 50 0 49 -1 50 -30 50 -29 0 -38 9 -23 23
9 10 16 9 51 -9z m-169 -17 c8 -10 7 -22 -2 -46 -10 -27 -16 -31 -35 -26 -17
4 -30 -1 -47 -19 -16 -18 -32 -24 -61 -24 -21 0 -33 3 -26 5 29 11 62 51 62
77 0 21 5 26 24 26 14 0 28 5 31 10 9 14 41 12 54 -3z m-43 -138 c-9 -13 -16
-31 -16 -39 0 -9 -7 -25 -15 -36 -15 -18 -16 -18 -40 11 -14 17 -25 41 -25 53
0 22 3 23 39 17 34 -6 39 -4 44 17 5 17 9 20 18 11 8 -8 7 -17 -5 -34z m944
-24 c0 -8 -7 -15 -15 -15 -8 0 -15 7 -15 15 0 8 7 15 15 15 8 0 15 -7 15 -15z
m-970 -110 c0 -8 22 -11 73 -11 58 1 72 -2 72 -14 0 -12 -21 -16 -114 -18 -68
-2 -118 1 -124 7 -12 12 -6 22 17 25 9 1 15 5 14 9 -2 3 6 13 17 21 21 15 45
5 45 -19z m1000 11 c0 -19 -8 -27 -35 -36 -19 -6 -45 -9 -57 -7 l-23 4 22 8
c18 6 22 12 17 31 -6 22 -3 24 35 24 37 0 41 -3 41 -24z m-316 -45 c8 -12 -29
-21 -91 -21 -41 0 -53 4 -53 15 0 12 14 15 69 15 39 0 72 -4 75 -9z m-9 -46
c19 -9 19 -9 -5 -16 -14 -4 -40 -7 -57 -8 -27 -1 -33 -5 -33 -23 0 -15 -11
-29 -31 -40 -41 -24 -51 -23 -39 5 5 12 11 38 14 57 l6 35 63 0 c34 0 71 -5
82 -10z m115 3 c0 -11 -28 -10 -35 1 -3 6 4 9 15 8 11 -1 20 -5 20 -9z m-582
-162 c4 -20 -85 -109 -99 -100 -16 10 -9 32 11 37 11 3 20 13 20 23 0 21 40
66 54 61 6 -2 13 -12 14 -21z m-148 -16 c0 -5 -4 -10 -10 -10 -5 0 -10 5 -10
10 0 6 5 10 10 10 6 0 10 -4 10 -10z m-83 -92 c-3 -8 -6 -5 -6 6 -1 11 2 17 5
13 3 -3 4 -12 1 -19z m151 -95 c-2 -13 -14 -19 -43 -21 l-40 -3 30 20 c38 25
57 26 53 4z m-193 -103 c17 -34 18 -40 6 -40 -7 0 -31 51 -31 66 0 12 12 0 25
-26z"/>
<path d="M515 1680 c-3 -5 -1 -10 4 -10 6 0 11 5 11 10 0 6 -2 10 -4 10 -3 0
-8 -4 -11 -10z"/>
<path d="M1110 1590 c0 -5 7 -10 16 -10 8 0 12 5 9 10 -3 6 -10 10 -16 10 -5
0 -9 -4 -9 -10z"/>
<path d="M696 1471 c-4 -5 3 -15 15 -21 18 -10 20 -9 17 6 -4 20 -23 30 -32
15z"/>
<path d="M3376 3958 c-7 -43 2 -58 33 -52 9 1 37 6 64 9 l47 6 0 40 0 39 -69
0 -68 0 -7 -42z"/>
<path d="M3562 3970 c0 -19 2 -27 5 -17 2 9 2 25 0 35 -3 9 -5 1 -5 -18z"/>
<path d="M3450 3755 c-14 -8 -32 -12 -40 -10 -24 7 -41 -9 -45 -43 l-4 -30 72
2 72 3 3 46 c3 40 0 47 -15 47 -10 -1 -29 -7 -43 -15z"/>
<path d="M3546 3754 c-9 -24 -7 -54 4 -54 6 0 10 16 10 35 0 38 -4 44 -14 19z"/>
<path d="M3540 3639 c0 -11 5 -17 10 -14 6 3 10 13 10 21 0 8 -4 14 -10 14 -5
0 -10 -9 -10 -21z"/>
<path d="M3485 3619 c-47 -40 -77 -61 -82 -56 -14 14 -43 -15 -43 -43 0 -29 0
-30 45 -23 25 3 45 2 45 -2 0 -4 -23 -29 -50 -56 -46 -44 -51 -53 -50 -92 0
-23 -2 -85 -5 -137 -6 -83 -9 -98 -32 -121 -15 -16 -24 -36 -22 -50 1 -13 -1
-40 -5 -60 -5 -22 -4 -45 3 -57 8 -15 8 -23 0 -28 -6 -4 -9 -20 -6 -39 3 -18
2 -37 -3 -41 -5 -5 -11 -38 -13 -74 -7 -81 -15 -102 -36 -96 -9 3 -22 2 -29
-3 -11 -7 -9 -13 9 -30 12 -11 28 -21 33 -21 6 -1 1 -9 -12 -20 -12 -10 -21
-23 -20 -28 3 -11 -1 -12 -32 -12 -12 0 -20 7 -21 18 0 12 -3 10 -11 -8 -14
-33 -18 -120 -5 -120 5 0 6 -11 3 -26 -4 -15 -2 -32 5 -40 8 -10 8 -22 0 -45
-9 -27 -8 -32 9 -36 12 -3 20 -14 20 -25 0 -19 2 -19 23 -5 12 8 23 23 23 33
1 11 2 25 3 32 1 6 6 12 11 12 7 0 8 -61 5 -182 -8 -236 -11 -268 -33 -268
-16 -1 -16 -2 1 -14 9 -7 17 -25 17 -39 0 -22 -6 -27 -36 -33 -22 -4 -43 -17
-56 -35 -13 -17 -31 -29 -44 -29 -20 0 -22 4 -17 35 6 39 -9 47 -29 15 -23
-36 -28 -24 -31 72 -2 39 -5 47 -24 51 -12 2 -27 -1 -32 -6 -16 -16 -13 -57 4
-63 19 -8 20 -24 1 -24 -10 0 -14 -15 -14 -54 0 -52 1 -55 28 -61 15 -3 72 -7
126 -9 55 -1 105 -5 112 -10 13 -8 16 -54 4 -73 -4 -6 -23 -11 -42 -10 -30 2
-36 -2 -38 -21 -2 -13 2 -29 8 -37 8 -10 8 -15 -2 -21 -9 -6 -5 -10 12 -14 29
-8 48 -1 30 10 -9 6 -7 10 6 14 11 3 25 20 32 38 17 46 24 29 12 -32 -12 -62
-9 -65 56 -75 46 -7 112 2 131 17 7 5 13 5 17 0 3 -5 30 -13 61 -17 30 -3 57
-10 60 -15 6 -10 -126 -18 -157 -8 -13 3 -60 6 -104 7 l-81 1 -6 -47 c-6 -54
14 -86 61 -98 23 -5 224 -94 258 -114 7 -3 44 -27 83 -54 39 -26 76 -47 82
-47 14 0 -87 117 -113 131 -15 8 -23 7 -34 -8 -7 -10 -14 -13 -15 -8 0 6 -2
21 -3 33 -2 13 4 26 11 29 11 4 13 15 8 40 -5 30 -4 34 12 31 14 -3 18 -13 18
-45 0 -36 5 -45 39 -72 40 -32 60 -38 71 -21 4 6 11 8 16 4 6 -3 18 1 28 10
16 14 18 14 34 -4 9 -11 23 -20 31 -20 21 0 67 -40 59 -53 -4 -6 0 -8 10 -4 9
3 18 1 21 -6 3 -9 5 -9 5 0 1 9 9 9 31 2 26 -10 30 -16 30 -50 0 -51 -17 -50
-53 2 -16 23 -31 38 -35 34 -7 -7 -8 -13 -11 -82 -1 -29 -6 -43 -14 -43 -17 0
34 -105 64 -133 29 -27 48 -77 42 -109 -3 -15 5 -56 18 -95 l24 -68 3 1194 c1
911 -1 1197 -10 1208 -8 10 -8 17 -1 21 6 4 11 49 12 107 1 55 -2 96 -6 91 -4
-4 -8 -13 -8 -19 0 -11 -15 -12 -65 -4 -29 5 -40 18 -34 41 4 17 -1 27 -22 40
-33 22 -50 5 -28 -29 15 -22 15 -22 -58 -21 -70 1 -73 2 -70 24 3 21 1 22 -17
13 -11 -6 -33 -9 -49 -6 -28 5 -29 3 -39 -53 l-10 -57 -3 70 c-4 109 -8 135
-30 162 -11 14 -21 40 -21 57 -1 17 -6 -14 -11 -69 -9 -106 -9 -116 -27 -405
-7 -102 -14 -194 -16 -205 -5 -29 6 565 14 714 7 135 3 194 -14 180z m216
-482 c-12 -12 -45 -1 -37 12 3 5 15 7 27 4 13 -4 17 -9 10 -16z m-61 3 c0 -5
-4 -10 -10 -10 -5 0 -10 5 -10 10 0 6 5 10 10 10 6 0 10 -4 10 -10z m64 -431
c21 -25 28 -71 12 -81 -6 -4 -21 -8 -33 -8 -21 0 -23 5 -23 48 0 67 12 78 44
41z m-214 -29 c0 -5 -5 -10 -11 -10 -5 0 -7 5 -4 10 3 6 8 10 11 10 2 0 4 -4
4 -10z m-13 -182 c-3 -8 -6 -5 -6 6 -1 11 2 17 5 13 3 -3 4 -12 1 -19z m76 10
c2 -7 2 -50 -1 -95 -4 -68 -7 -82 -23 -86 -26 -7 -29 0 -29 68 0 89 9 125 30
125 10 0 20 -6 23 -12z m-86 -270 c-2 -29 -3 -8 -3 47 0 55 1 79 3 53 2 -26 2
-71 0 -100z m411 -123 c0 -29 0 -29 -8 -5 -4 14 -8 36 -8 50 -1 23 0 23 8 5 5
-11 8 -33 8 -50z m112 30 c0 -8 -9 -15 -19 -15 -11 0 -21 -5 -23 -12 -3 -7
-10 -8 -17 -4 -9 6 -5 13 16 26 35 23 43 24 43 5z m-533 -27 c-3 -7 -5 -2 -5
12 0 14 2 19 5 13 2 -7 2 -19 0 -25z m468 -64 c-5 -30 -3 -34 17 -35 13 -1 26
-1 31 0 12 2 8 -54 -5 -67 -9 -9 -9 -12 1 -12 7 0 11 -9 9 -22 -2 -15 -10 -23
-22 -23 -14 0 -19 -8 -21 -33 -3 -31 -1 -33 21 -29 23 4 23 2 20 -47 -2 -37
-7 -50 -17 -48 -29 7 -39 30 -42 90 -1 34 -6 62 -11 62 -5 0 -6 -26 -2 -59 6
-55 5 -59 -18 -75 -34 -22 -42 -4 -17 38 13 20 21 50 21 75 0 23 6 57 14 76 8
18 12 36 8 39 -3 3 1 6 8 6 11 0 10 3 -2 13 -21 17 -32 66 -17 83 18 22 31 5
24 -32z m-305 -64 c-4 -30 -8 -45 -9 -32 -1 28 -21 20 -21 -9 0 -10 -4 -19
-10 -19 -16 0 -12 70 5 76 8 4 15 12 15 19 0 10 21 27 26 21 0 0 -2 -26 -6
-56z m177 -12 c-3 -7 -5 -2 -5 12 0 14 2 19 5 13 2 -7 2 -19 0 -25z m-340 -10
c-3 -8 -6 -5 -6 6 -1 11 2 17 5 13 3 -3 4 -12 1 -19z m-6 -125 c-9 -16 -10
-16 -11 4 0 12 3 30 7 40 7 16 8 16 11 -4 2 -12 -1 -30 -7 -40z m199 -2 c3 -1
-5 -9 -18 -19 -16 -12 -21 -23 -16 -36 6 -16 8 -17 16 -2 10 19 28 12 28 -10
0 -11 -11 -14 -47 -12 -31 2 -48 7 -47 16 1 6 2 25 3 41 1 26 4 28 39 26 20
-1 39 -3 42 -4z m-172 -205 c9 4 54 7 99 8 71 1 83 -1 83 -16 0 -11 -6 -15
-19 -11 -21 5 -37 -12 -21 -22 5 -3 10 -17 10 -30 0 -18 -9 -26 -44 -38 -50
-17 -56 -15 -56 22 -1 25 -1 25 -16 6 -8 -11 -29 -27 -46 -35 -30 -14 -33 -14
-61 12 -22 21 -27 33 -21 50 4 13 6 36 6 53 -1 19 6 36 19 46 13 10 22 31 26
60 9 82 18 74 21 -19 2 -84 5 -93 20 -86z m-285 99 c8 -19 -13 -31 -23 -14 -9
14 -4 29 10 29 4 0 10 -7 13 -15z m705 -74 c3 -8 -1 -12 -9 -9 -7 2 -15 10
-17 17 -3 8 1 12 9 9 7 -2 15 -10 17 -17z m-134 -219 c9 -9 70 47 72 65 0 10
1 31 2 46 2 32 38 52 60 34 8 -6 27 -10 43 -9 28 2 29 1 29 -47 0 -44 -2 -50
-30 -61 -49 -20 -82 -54 -84 -89 -2 -32 1 -34 83 -43 14 -2 26 -9 29 -17 4
-11 -13 -12 -91 -6 -60 5 -102 3 -113 -3 -14 -8 -23 -7 -34 2 -8 7 -34 18 -57
25 -58 16 -55 34 5 29 l47 -3 1 120 c1 159 4 168 20 56 8 -52 16 -96 18 -99z
m-107 96 c-3 -8 -6 -5 -6 6 -1 11 2 17 5 13 3 -3 4 -12 1 -19z m193 -328 c0
-5 -4 -10 -10 -10 -5 0 -10 5 -10 10 0 6 5 10 10 10 6 0 10 -4 10 -10z"/>
<path d="M3926 1931 c-4 -7 -5 -15 -2 -18 9 -9 19 4 14 18 -4 11 -6 11 -12 0z"/>
<path d="M3940 1530 c0 -5 5 -10 10 -10 6 0 10 5 10 10 0 6 -4 10 -10 10 -5 0
-10 -4 -10 -10z"/>
<path d="M3800 1414 c0 -8 5 -12 10 -9 6 4 8 11 5 16 -9 14 -15 11 -15 -7z"/>
<path d="M3537 3541 c-4 -29 -6 -56 -2 -59 11 -12 16 8 13 59 l-3 54 -8 -54z"/>
<path d="M2835 3280 c3 -5 8 -10 11 -10 2 0 4 5 4 10 0 6 -5 10 -11 10 -5 0
-7 -4 -4 -10z"/>
<path d="M3790 3265 c0 -8 5 -15 10 -15 6 0 10 7 10 15 0 8 -4 15 -10 15 -5 0
-10 -7 -10 -15z"/>
<path d="M2672 2604 c32 -16 50 -33 54 -50 7 -26 -1 -118 -12 -151 -5 -13 -4
-15 5 -7 17 16 26 145 12 172 -11 20 -79 63 -98 62 -4 -1 13 -12 39 -26z"/>
<path d="M2052 2580 c0 -14 2 -19 5 -12 2 6 2 18 0 25 -3 6 -5 1 -5 -13z"/>
<path d="M2105 2540 c8 -51 21 -72 31 -47 6 17 4 24 -22 67 -15 24 -15 23 -9
-20z"/>
<path d="M2315 2460 c3 -5 8 -10 11 -10 2 0 4 5 4 10 0 6 -5 10 -11 10 -5 0
-7 -4 -4 -10z"/>
<path d="M3072 2300 c0 -14 2 -19 5 -12 2 6 2 18 0 25 -3 6 -5 1 -5 -13z"/>
<path d="M2197 2233 c-4 -42 -1 -55 31 -108 62 -101 81 -129 99 -148 10 -11
17 -23 16 -28 -2 -5 2 -9 8 -9 5 0 16 -15 24 -34 15 -34 40 -66 54 -66 4 0 12
15 19 33 9 25 9 42 -2 79 -8 25 -12 48 -9 51 6 7 -19 77 -28 77 -4 0 -12 15
-20 33 -7 17 -26 46 -43 62 -28 28 -131 105 -140 105 -2 0 -6 -21 -9 -47z"/>
<path d="M1943 2205 c-30 -21 -29 -27 5 -43 38 -18 103 -25 130 -15 23 9 23
10 -15 36 -51 35 -92 43 -120 22z"/>
<path d="M3030 2189 c0 -16 -9 -47 -19 -67 -11 -21 -23 -72 -28 -119 l-8 -83
27 0 c25 0 28 3 28 35 0 31 3 35 25 35 22 0 25 4 25 33 0 26 -6 36 -25 45 -29
13 -31 28 -10 68 10 20 15 23 15 12 0 -10 5 -18 10 -18 6 0 10 15 10 33 0 26
-6 36 -25 45 -24 11 -25 10 -25 -19z"/>
<path d="M2793 2114 c6 -95 8 -112 20 -131 5 -8 4 -13 -2 -13 -14 0 -14 -57
-1 -65 6 -3 10 -23 10 -44 0 -33 4 -39 25 -43 13 -3 22 -2 20 3 -3 4 -1 10 4
14 9 5 -14 62 -30 75 -4 3 -10 56 -14 117 -4 62 -11 111 -15 108 -4 -2 -6 9
-4 25 2 16 -1 32 -7 36 -8 4 -9 -21 -6 -82z"/>
<path d="M3152 2160 c0 -14 2 -19 5 -12 2 6 2 18 0 25 -3 6 -5 1 -5 -13z"/>
<path d="M2960 2160 c0 -5 5 -10 11 -10 5 0 7 5 4 10 -3 6 -8 10 -11 10 -2 0
-4 -4 -4 -10z"/>
<path d="M3147 1901 c-3 -14 2 -20 19 -24 20 -3 24 0 24 19 0 30 -35 33 -43 5z"/>
<path d="M3080 1851 c0 -18 18 -21 30 -6 10 13 9 15 -9 15 -11 0 -21 -4 -21
-9z"/>
<path d="M2723 1638 c-18 -21 -63 -121 -63 -140 0 -41 69 -18 89 30 11 26 16
29 47 25 20 -3 34 0 34 6 0 6 -5 11 -11 11 -6 0 -27 18 -48 41 -30 34 -39 39
-48 27z"/>
<path d="M2955 1533 c2 -24 0 -56 -5 -72 -10 -37 -5 -42 85 -69 96 -29 141
-34 155 -17 9 10 6 15 -9 20 -12 3 -21 11 -21 16 0 5 -11 7 -25 3 -29 -7 -31
-2 -9 20 14 15 12 16 -20 16 -35 0 -48 13 -23 24 8 3 7 8 -5 16 -10 6 -18 19
-18 29 0 34 -26 56 -68 56 l-40 0 3 -42z"/>
<path d="M2662 1408 c5 -15 28 -23 28 -10 0 5 -7 13 -16 16 -10 4 -14 1 -12
-6z"/>
<path d="M2815 1390 c-3 -5 -1 -10 4 -10 6 0 11 5 11 10 0 6 -2 10 -4 10 -3 0
-8 -4 -11 -10z"/>
<path d="M2320 1380 c0 -5 -6 -9 -12 -7 -17 3 -12 -15 27 -100 28 -60 37 -72
52 -66 27 10 50 31 79 68 9 11 12 14 8 6 -5 -9 -3 -12 4 -7 22 13 13 36 -13
36 -28 0 -33 15 -9 24 9 4 15 9 12 12 -3 2 -18 0 -33 -6 -23 -9 -26 -8 -21 5
3 8 3 15 0 15 -2 0 -9 -10 -14 -22 -5 -14 -9 -17 -9 -8 -1 16 -41 26 -41 11 0
-4 -6 -8 -13 -8 -9 0 -13 10 -11 29 2 15 1 28 -1 28 -3 0 -5 -4 -5 -10z"/>
<path d="M2671 1368 c0 -9 -4 -25 -7 -35 -5 -14 -4 -15 5 -7 7 7 11 22 8 35
-2 13 -5 16 -6 7z"/>
<path d="M2706 1303 c-3 -32 -9 -83 -12 -113 -3 -30 -15 -88 -25 -129 -10 -41
-19 -83 -19 -93 0 -10 -5 -18 -11 -18 -6 0 -9 -7 -5 -15 3 -8 1 -15 -5 -15 -5
0 -9 -6 -8 -12 3 -25 -1 -39 -10 -34 -5 4 -11 1 -13 -5 -2 -7 -10 -10 -17 -8
-11 4 -10 9 3 22 10 9 15 21 11 27 -3 5 2 45 11 87 31 146 33 158 33 183 -1
23 -2 22 -8 -5 -5 -16 -14 -59 -20 -95 -7 -36 -28 -112 -47 -169 -34 -98 -38
-141 -13 -125 8 4 9 3 5 -4 -9 -15 38 -97 149 -262 124 -183 145 -221 167
-298 17 -61 18 -45 2 41 -8 46 26 89 70 85 29 -3 32 -7 45 -63 8 -33 18 -62
23 -63 4 -2 8 -12 8 -23 0 -10 21 -59 46 -109 l45 -90 410 0 c402 1 410 1 404
20 -5 15 -3 18 9 14 21 -8 21 19 1 36 -13 11 -14 10 -9 -4 6 -17 -4 -21 -21
-8 -12 8 -36 72 -27 72 3 0 14 -8 24 -17 18 -16 18 -16 12 0 -3 9 -3 17 0 17
4 0 11 -10 16 -22 8 -21 9 -20 6 7 -3 34 -25 85 -37 85 -4 0 -8 8 -8 17 -1 39
-14 83 -25 83 -6 1 3 8 19 16 17 8 22 12 13 9 -13 -3 -18 1 -18 17 0 18 2 19
18 7 15 -12 16 -12 5 2 -7 9 -10 19 -6 22 3 4 1 7 -5 7 -6 0 -14 -5 -17 -10
-5 -8 -11 -8 -19 -1 -7 6 -15 9 -18 6 -2 -3 -5 2 -5 10 0 8 4 12 8 9 4 -2 11
0 14 6 4 6 3 10 -2 9 -24 -4 -43 3 -43 16 0 10 6 12 18 8 16 -7 16 -6 0 11
-10 9 -18 22 -18 27 0 6 -4 7 -10 4 -6 -4 -7 1 -3 11 5 13 2 15 -18 9 -23 -7
-23 -7 -7 12 14 15 15 22 6 31 -9 9 -9 12 0 12 6 0 18 -16 26 -35 17 -39 21
-42 30 -19 3 8 2 12 -3 9 -5 -3 -12 -1 -16 5 -6 9 8 14 28 11 5 -1 5 3 2 9 -4
6 -13 9 -19 7 -9 -4 -12 3 -10 21 2 15 1 19 -2 10 -6 -19 -24 -25 -24 -7 0 5
-5 7 -11 4 -6 -4 -13 2 -16 14 -3 12 -9 21 -14 21 -5 0 -9 9 -9 21 0 11 -4 17
-10 14 -5 -3 -10 -2 -10 4 0 5 5 13 11 16 6 4 8 14 5 22 -4 9 -2 21 4 28 8 9
6 14 -5 19 -9 3 -14 2 -12 -2 3 -4 -6 -15 -19 -25 -13 -10 -24 -13 -24 -8 0 5
5 13 10 16 6 4 8 10 5 14 -2 5 9 23 26 42 16 18 27 40 24 48 -5 12 -3 12 12 0
10 -7 15 -10 11 -5 -4 5 -1 21 7 37 18 34 18 39 4 39 -6 0 -24 9 -40 21 -16
11 -29 18 -29 14 0 -3 -11 2 -25 11 -14 9 -25 22 -25 29 0 7 -8 21 -17 32 -10
10 -15 14 -10 9 4 -6 7 -16 7 -24 0 -9 -10 -5 -31 12 -17 14 -35 26 -40 26 -5
0 -27 11 -49 25 -22 14 -49 25 -60 25 -11 0 -20 5 -20 11 0 17 57 0 111 -34
27 -16 52 -28 55 -25 2 3 -16 18 -41 32 -25 15 -45 30 -45 34 0 5 -17 9 -37
10 -75 5 -97 10 -101 21 -3 9 -8 8 -20 -1 -12 -10 -14 -10 -8 0 7 12 -4 16
-31 13 -7 -1 -13 3 -13 8 0 6 -18 14 -40 17 -25 4 -45 14 -51 25 -12 24 -31
25 -22 2 6 -16 5 -16 -10 -4 -14 11 -17 11 -17 0 -1 -10 -5 -9 -14 4 -11 14
-11 24 -3 47 9 23 8 33 -1 42 -9 9 -16 3 -28 -29 -15 -37 -44 -66 -44 -44 0 5
-16 25 -35 45 -26 27 -43 36 -68 36 -18 0 -38 5 -45 12 -9 9 -12 7 -12 -10 0
-15 -6 -22 -20 -22 -11 0 -20 4 -20 9 0 5 -7 12 -16 15 -8 3 -12 2 -9 -4 10
-16 -12 -12 -29 6 -19 18 -22 4 -3 -15 10 -11 8 -11 -10 -2 -13 6 -23 16 -23
22 0 6 -9 22 -20 36 l-20 26 -1 -29 c-1 -30 -3 -27 -13 19 -10 44 -23 31 -30
-30z m104 -58 c7 -9 11 -18 8 -20 -9 -10 -38 7 -38 21 0 18 14 18 30 -1z m223
-16 c27 -21 64 -86 54 -95 -3 -3 -19 15 -36 39 -17 25 -37 47 -46 50 -16 7
-21 27 -6 27 4 0 20 -9 34 -21z m-183 -20 c0 -5 -4 -9 -10 -9 -5 0 -10 7 -10
16 0 8 5 12 10 9 6 -3 10 -10 10 -16z m-37 -13 c9 -7 17 -19 17 -27 0 -12 -2
-12 -9 0 -7 11 -10 10 -14 -5 -4 -17 -5 -17 -6 2 0 11 -6 25 -13 32 -16 16 3
15 25 -2z m204 -22 c7 -18 -26 -172 -39 -180 -4 -3 -5 8 -2 23 5 29 11 98 13
146 1 29 18 37 28 11z m118 -33 c3 -5 1 -12 -5 -16 -5 -3 -10 1 -10 9 0 18 6
21 15 7z m187 -48 c6 -7 16 -13 23 -13 7 0 15 -7 19 -15 7 -20 2 -19 -42 9
-21 13 -47 26 -58 29 -10 3 -4 4 14 4 18 -1 38 -7 44 -14z m-259 -96 c-28 -69
-41 -86 -22 -26 15 47 40 101 44 97 2 -2 -8 -34 -22 -71z m344 57 c-3 -3 -12
-4 -19 -1 -8 3 -5 6 6 6 11 1 17 -2 13 -5z m-472 -135 c-10 -39 -19 -68 -21
-67 -4 5 16 137 23 158 5 12 7 11 10 -3 3 -10 -3 -50 -12 -88z m477 72 c-5 -3
-17 -21 -26 -38 -20 -39 -98 -145 -103 -140 -3 4 46 98 56 107 4 3 19 24 35
47 16 24 33 40 38 37 7 -4 7 -9 0 -13z m286 -96 c20 -14 32 -25 26 -25 -21 0
-79 46 -82 65 -2 18 -2 19 8 3 6 -10 28 -29 48 -43z m-67 16 c9 -26 57 -57 82
-52 4 0 7 -3 7 -9 0 -13 -36 -31 -44 -22 -4 3 -4 -1 0 -11 3 -9 2 -17 -4 -17
-6 0 -23 -11 -39 -24 -18 -16 -38 -23 -56 -21 -21 3 -27 0 -23 -10 3 -8 1 -17
-5 -20 -5 -4 -6 -11 -3 -17 4 -6 -2 -6 -15 1 -25 14 -30 46 -5 37 8 -3 12 -2
9 4 -3 6 1 20 9 32 9 12 16 29 16 37 0 15 50 121 57 121 2 0 9 -13 14 -29z
m-341 -121 c0 -5 -2 -10 -4 -10 -3 0 -8 5 -11 10 -3 6 -1 10 4 10 6 0 11 -4
11 -10z m390 -131 c0 -6 -4 -7 -10 -4 -5 3 -10 11 -10 16 0 6 5 7 10 4 6 -3
10 -11 10 -16z m46 -66 c-10 -10 -19 5 -10 18 6 11 8 11 12 0 2 -7 1 -15 -2
-18z m19 -32 c3 -6 -3 -9 -14 -8 -11 0 -17 5 -15 9 7 11 22 10 29 -1z m35 -91
c0 -5 -5 -10 -11 -10 -5 0 -7 5 -4 10 3 6 8 10 11 10 2 0 4 -4 4 -10z m35 -80
c3 -5 1 -10 -4 -10 -6 0 -11 5 -11 10 0 6 2 10 4 10 3 0 8 -4 11 -10z m39
-154 c-3 -9 -10 -16 -15 -16 -5 0 -4 9 3 20 14 22 21 20 12 -4z m76 -101 c0
-2 -32 0 -52 4 -4 0 -5 8 -2 16 5 12 9 12 30 -2 13 -8 24 -16 24 -18z m-52
-61 c2 -30 -2 -30 -21 -1 -13 21 -13 23 2 24 11 1 17 -7 19 -23z m-30 -19 c-3
-3 -9 2 -12 12 -6 14 -5 15 5 6 7 -7 10 -15 7 -18z"/>
<path d="M2811 1334 c0 -11 3 -14 6 -6 3 7 2 16 -1 19 -3 4 -6 -2 -5 -13z"/>
<path d="M3737 1063 c-11 -11 -8 -30 6 -36 7 -3 13 5 13 19 2 24 -6 31 -19 17z"/>
<path d="M3785 1037 c2 -27 12 -47 26 -47 6 0 8 4 4 9 -3 5 0 13 5 16 8 5 6
13 -6 26 -23 25 -30 24 -29 -4z"/>
<path d="M3760 928 c0 -34 17 -45 38 -24 15 15 15 16 0 16 -10 0 -22 8 -27 18
-9 15 -10 13 -11 -10z"/>
<path d="M3792 600 c0 -14 2 -19 5 -12 2 6 2 18 0 25 -3 6 -5 1 -5 -13z"/>
<path d="M2917 203 c-4 -3 -7 -22 -7 -42 0 -28 -3 -33 -11 -21 -8 11 -9 4 -5
-29 6 -40 4 -45 -29 -77 l-36 -34 100 0 c56 0 101 2 101 4 0 1 -11 23 -23 47
-20 37 -50 111 -52 129 -2 22 -25 36 -38 23z"/>
</g>
</svg>
